<?xml version="1.0" encoding="UTF-8" standalone="no"?>
<!DOCTYPE svg PUBLIC "-//W3C//DTD SVG 1.1//EN"
 "http://www.w3.org/Graphics/SVG/1.1/DTD/svg11.dtd">
<!-- Generated by graphviz version 2.40.1 (20161225.0304)
 -->
<!-- Title: dependencies Pages: 1 -->
<svg width="1082pt" height="290pt"
 viewBox="0.00 0.00 1082.00 290.00" xmlns="http://www.w3.org/2000/svg" xmlns:xlink="http://www.w3.org/1999/xlink">
<g id="graph0" class="graph" transform="scale(1 1) rotate(0) translate(4 286)">
<title>dependencies</title>
<polygon fill="#ffffff" stroke="transparent" points="-4,4 -4,-286 1078,-286 1078,4 -4,4"/>
<text text-anchor="start" x="516.0091" y="-42.4" font-family="sans-serif" font-weight="bold" font-size="14.00" fill="#000000">Legend</text>
<polygon fill="#ffffb3" stroke="transparent" points="303,-10 303,-30 323,-30 323,-10 303,-10"/>
<text text-anchor="start" x="326.629" y="-15.4" font-family="sans-serif" font-size="14.00" fill="#000000"> &#160;Declarations</text>
<polygon fill="#8dd3c7" stroke="transparent" points="416,-10 416,-30 436,-30 436,-10 416,-10"/>
<text text-anchor="start" x="439.7251" y="-15.4" font-family="sans-serif" font-size="14.00" fill="#000000"> &#160;Module</text>
<polygon fill="#80b1d3" stroke="transparent" points="502,-10 502,-30 522,-30 522,-10 502,-10"/>
<text text-anchor="start" x="525.7812" y="-15.4" font-family="sans-serif" font-size="14.00" fill="#000000"> &#160;Bootstrap</text>
<polygon fill="#fdb462" stroke="transparent" points="599,-10 599,-30 619,-30 619,-10 599,-10"/>
<text text-anchor="start" x="622.6732" y="-15.4" font-family="sans-serif" font-size="14.00" fill="#000000"> &#160;Providers</text>
<polygon fill="#fb8072" stroke="transparent" points="695,-10 695,-30 715,-30 715,-10 695,-10"/>
<text text-anchor="start" x="718.7258" y="-15.4" font-family="sans-serif" font-size="14.00" fill="#000000"> &#160;Exports</text>
<g id="clust1" class="cluster">
<title>cluster_AppModule</title>
<polygon fill="none" stroke="#000000" stroke-dasharray="1,5" points="8,-70 8,-274 272,-274 272,-70 8,-70"/>
</g>
<g id="clust2" class="cluster">
<title>cluster_AppModule_declarations</title>
<polygon fill="none" stroke="#000000" points="16,-78 16,-130 138,-130 138,-78 16,-78"/>
</g>
<g id="clust4" class="cluster">
<title>cluster_AppModule_imports</title>
<polygon fill="none" stroke="#000000" points="146,-78 146,-130 264,-130 264,-78 146,-78"/>
</g>
<g id="clust6" class="cluster">
<title>cluster_AppModule_bootstrap</title>
<polygon fill="none" stroke="#000000" points="78,-214 78,-266 202,-266 202,-214 78,-214"/>
</g>
<g id="clust8" class="cluster">
<title>cluster_SampleModule</title>
<polygon fill="none" stroke="#000000" stroke-dasharray="1,5" points="280,-138 280,-206 1066,-206 1066,-138 280,-138"/>
</g>
<g id="clust9" class="cluster">
<title>cluster_SampleModule_declarations</title>
<polygon fill="none" stroke="#000000" points="682,-146 682,-198 1058,-198 1058,-146 682,-146"/>
</g>
<g id="clust14" class="cluster">
<title>cluster_SampleModule_exports</title>
<polygon fill="none" stroke="#000000" points="288,-146 288,-198 674,-198 674,-146 288,-146"/>
</g>
<!-- AppComponent -->
<g id="node1" class="node">
<title>AppComponent</title>
<polygon fill="#ffffb3" stroke="#000000" points="129.9399,-122 24.0601,-122 24.0601,-86 129.9399,-86 129.9399,-122"/>
<text text-anchor="middle" x="77" y="-99.8" font-family="Times,serif" font-size="14.00" fill="#000000">AppComponent</text>
</g>
<!-- AppModule -->
<g id="node2" class="node">
<title>AppModule</title>
<polygon fill="#8dd3c7" stroke="#000000" points="181.6571,-190 178.6571,-194 157.6571,-194 154.6571,-190 98.3429,-190 98.3429,-154 181.6571,-154 181.6571,-190"/>
<text text-anchor="middle" x="140" y="-167.8" font-family="Times,serif" font-size="14.00" fill="#000000">AppModule</text>
</g>
<!-- AppComponent&#45;&gt;AppModule -->
<g id="edge1" class="edge">
<title>AppComponent&#45;&gt;AppModule</title>
<path fill="none" stroke="#000000" d="M113.9457,-122.2228C113.9457,-122.2228 113.9457,-143.7269 113.9457,-143.7269"/>
<polygon fill="#000000" stroke="#000000" points="110.4457,-143.7269 113.9457,-153.7269 117.4457,-143.727 110.4457,-143.7269"/>
</g>
<!-- AppComponent  -->
<g id="node4" class="node">
<title>AppComponent </title>
<polygon fill="#80b1d3" stroke="#000000" points="194.439,-258 85.561,-258 85.561,-222 194.439,-222 194.439,-258"/>
<text text-anchor="middle" x="140" y="-235.8" font-family="Times,serif" font-size="14.00" fill="#000000">AppComponent </text>
</g>
<!-- AppModule&#45;&gt;AppComponent  -->
<g id="edge3" class="edge">
<title>AppModule&#45;&gt;AppComponent </title>
<path fill="none" stroke="#000000" stroke-dasharray="1,5" d="M140,-190.2228C140,-190.2228 140,-211.7269 140,-211.7269"/>
<polygon fill="#000000" stroke="#000000" points="136.5001,-211.7269 140,-221.7269 143.5001,-211.727 136.5001,-211.7269"/>
</g>
<!-- SampleModule -->
<g id="node3" class="node">
<title>SampleModule</title>
<polygon fill="#8dd3c7" stroke="#000000" points="255.5438,-122 252.5438,-126 231.5438,-126 228.5438,-122 154.4562,-122 154.4562,-86 255.5438,-86 255.5438,-122"/>
<text text-anchor="middle" x="205" y="-99.8" font-family="Times,serif" font-size="14.00" fill="#000000">SampleModule</text>
</g>
<!-- SampleModule&#45;&gt;AppModule -->
<g id="edge2" class="edge">
<title>SampleModule&#45;&gt;AppModule</title>
<path fill="none" stroke="#000000" d="M168.0284,-122.2228C168.0284,-122.2228 168.0284,-143.7269 168.0284,-143.7269"/>
<polygon fill="#000000" stroke="#000000" points="164.5285,-143.7269 168.0284,-153.7269 171.5285,-143.727 164.5285,-143.7269"/>
</g>
<!-- MultiplyPipe  -->
<g id="node8" class="node">
<title>MultiplyPipe </title>
<polygon fill="#fb8072" stroke="#000000" points="665.8956,-190 572.1044,-190 572.1044,-154 665.8956,-154 665.8956,-190"/>
<text text-anchor="middle" x="619" y="-167.8" font-family="Times,serif" font-size="14.00" fill="#000000">MultiplyPipe </text>
</g>
<!-- SampleModule&#45;&gt;MultiplyPipe  -->
<g id="edge7" class="edge">
<title>SampleModule&#45;&gt;MultiplyPipe </title>
<path fill="none" stroke="#000000" stroke-dasharray="5,2" d="M255.7645,-110C366.3145,-110 619,-110 619,-110 619,-110 619,-143.7333 619,-143.7333"/>
<polygon fill="#000000" stroke="#000000" points="615.5001,-143.7333 619,-153.7333 622.5001,-143.7333 615.5001,-143.7333"/>
</g>
<!-- SampleComponent  -->
<g id="node9" class="node">
<title>SampleComponent </title>
<polygon fill="#fb8072" stroke="#000000" points="554.3255,-190 427.6745,-190 427.6745,-154 554.3255,-154 554.3255,-190"/>
<text text-anchor="middle" x="491" y="-167.8" font-family="Times,serif" font-size="14.00" fill="#000000">SampleComponent </text>
</g>
<!-- SampleModule&#45;&gt;SampleComponent  -->
<g id="edge8" class="edge">
<title>SampleModule&#45;&gt;SampleComponent </title>
<path fill="none" stroke="#000000" stroke-dasharray="5,2" d="M255.8015,-116C337.9865,-116 491,-116 491,-116 491,-116 491,-143.973 491,-143.973"/>
<polygon fill="#000000" stroke="#000000" points="487.5001,-143.973 491,-153.973 494.5001,-143.973 487.5001,-143.973"/>
</g>
<!-- SampleDirective  -->
<g id="node10" class="node">
<title>SampleDirective </title>
<polygon fill="#fb8072" stroke="#000000" points="409.5766,-190 296.4234,-190 296.4234,-154 409.5766,-154 409.5766,-190"/>
<text text-anchor="middle" x="353" y="-167.8" font-family="Times,serif" font-size="14.00" fill="#000000">SampleDirective </text>
</g>
<!-- SampleModule&#45;&gt;SampleDirective  -->
<g id="edge9" class="edge">
<title>SampleModule&#45;&gt;SampleDirective </title>
<path fill="none" stroke="#000000" stroke-dasharray="5,2" d="M225.1205,-122.2228C225.1205,-142.3652 225.1205,-172 225.1205,-172 225.1205,-172 286.1655,-172 286.1655,-172"/>
<polygon fill="#000000" stroke="#000000" points="286.1655,-175.5001 296.1655,-172 286.1654,-168.5001 286.1655,-175.5001"/>
</g>
<!-- MultiplyPipe -->
<g id="node5" class="node">
<title>MultiplyPipe</title>
<polygon fill="#ffffb3" stroke="#000000" points="1049.8949,-190 960.1051,-190 960.1051,-154 1049.8949,-154 1049.8949,-190"/>
<text text-anchor="middle" x="1005" y="-167.8" font-family="Times,serif" font-size="14.00" fill="#000000">MultiplyPipe</text>
</g>
<!-- MultiplyPipe&#45;&gt;SampleModule -->
<g id="edge4" class="edge">
<title>MultiplyPipe&#45;&gt;SampleModule</title>
<path fill="none" stroke="#000000" d="M1005,-153.8468C1005,-130.2434 1005,-92 1005,-92 1005,-92 265.6505,-92 265.6505,-92"/>
<polygon fill="#000000" stroke="#000000" points="265.6505,-88.5001 255.6505,-92 265.6505,-95.5001 265.6505,-88.5001"/>
</g>
<!-- SampleComponent -->
<g id="node6" class="node">
<title>SampleComponent</title>
<polygon fill="#ffffb3" stroke="#000000" points="941.8258,-190 818.1742,-190 818.1742,-154 941.8258,-154 941.8258,-190"/>
<text text-anchor="middle" x="880" y="-167.8" font-family="Times,serif" font-size="14.00" fill="#000000">SampleComponent</text>
</g>
<!-- SampleComponent&#45;&gt;SampleModule -->
<g id="edge5" class="edge">
<title>SampleComponent&#45;&gt;SampleModule</title>
<path fill="none" stroke="#000000" d="M880,-153.7079C880,-131.7943 880,-98 880,-98 880,-98 265.7347,-98 265.7347,-98"/>
<polygon fill="#000000" stroke="#000000" points="265.7347,-94.5001 255.7347,-98 265.7347,-101.5001 265.7347,-94.5001"/>
</g>
<!-- SampleDirective -->
<g id="node7" class="node">
<title>SampleDirective</title>
<polygon fill="#ffffb3" stroke="#000000" points="800.0758,-190 689.9242,-190 689.9242,-154 800.0758,-154 800.0758,-190"/>
<text text-anchor="middle" x="745" y="-167.8" font-family="Times,serif" font-size="14.00" fill="#000000">SampleDirective</text>
</g>
<!-- SampleDirective&#45;&gt;SampleModule -->
<g id="edge6" class="edge">
<title>SampleDirective&#45;&gt;SampleModule</title>
<path fill="none" stroke="#000000" d="M745,-153.7772C745,-133.6348 745,-104 745,-104 745,-104 265.8019,-104 265.8019,-104"/>
<polygon fill="#000000" stroke="#000000" points="265.8019,-100.5001 255.8019,-104 265.8019,-107.5001 265.8019,-100.5001"/>
</g>
</g>
</svg>
