<?xml version="1.0" encoding="UTF-8" standalone="no"?>
<!DOCTYPE svg PUBLIC "-//W3C//DTD SVG 1.1//EN"
 "http://www.w3.org/Graphics/SVG/1.1/DTD/svg11.dtd">
<!-- Generated by graphviz version 2.40.1 (20161225.0304)
 -->
<!-- Title: dependencies Pages: 1 -->
<svg width="1002pt" height="290pt"
 viewBox="0.00 0.00 1002.00 290.00" xmlns="http://www.w3.org/2000/svg" xmlns:xlink="http://www.w3.org/1999/xlink">
<g id="graph0" class="graph" transform="scale(1 1) rotate(0) translate(4 286)">
<title>dependencies</title>
<polygon fill="#ffffff" stroke="transparent" points="-4,4 -4,-286 998,-286 998,4 -4,4"/>
<text text-anchor="start" x="476.0091" y="-42.4" font-family="sans-serif" font-weight="bold" font-size="14.00" fill="#000000">Legend</text>
<polygon fill="#ffffb3" stroke="transparent" points="263,-10 263,-30 283,-30 283,-10 263,-10"/>
<text text-anchor="start" x="286.629" y="-15.4" font-family="sans-serif" font-size="14.00" fill="#000000"> &#160;Declarations</text>
<polygon fill="#8dd3c7" stroke="transparent" points="376,-10 376,-30 396,-30 396,-10 376,-10"/>
<text text-anchor="start" x="399.7251" y="-15.4" font-family="sans-serif" font-size="14.00" fill="#000000"> &#160;Module</text>
<polygon fill="#80b1d3" stroke="transparent" points="462,-10 462,-30 482,-30 482,-10 462,-10"/>
<text text-anchor="start" x="485.7812" y="-15.4" font-family="sans-serif" font-size="14.00" fill="#000000"> &#160;Bootstrap</text>
<polygon fill="#fdb462" stroke="transparent" points="559,-10 559,-30 579,-30 579,-10 559,-10"/>
<text text-anchor="start" x="582.6732" y="-15.4" font-family="sans-serif" font-size="14.00" fill="#000000"> &#160;Providers</text>
<polygon fill="#fb8072" stroke="transparent" points="655,-10 655,-30 675,-30 675,-10 655,-10"/>
<text text-anchor="start" x="678.7258" y="-15.4" font-family="sans-serif" font-size="14.00" fill="#000000"> &#160;Exports</text>
<g id="clust1" class="cluster">
<title>cluster_AppModule</title>
<polygon fill="none" stroke="#000000" stroke-dasharray="1,5" points="8,-70 8,-274 272,-274 272,-70 8,-70"/>
</g>
<g id="clust2" class="cluster">
<title>cluster_AppModule_declarations</title>
<polygon fill="none" stroke="#000000" points="16,-78 16,-130 138,-130 138,-78 16,-78"/>
</g>
<g id="clust4" class="cluster">
<title>cluster_AppModule_imports</title>
<polygon fill="none" stroke="#000000" points="146,-78 146,-130 264,-130 264,-78 146,-78"/>
</g>
<g id="clust6" class="cluster">
<title>cluster_AppModule_bootstrap</title>
<polygon fill="none" stroke="#000000" points="78,-214 78,-266 202,-266 202,-214 78,-214"/>
</g>
<g id="clust8" class="cluster">
<title>cluster_SampleModule</title>
<polygon fill="none" stroke="#000000" stroke-dasharray="1,5" points="280,-138 280,-206 986,-206 986,-138 280,-138"/>
</g>
<g id="clust9" class="cluster">
<title>cluster_SampleModule_declarations</title>
<polygon fill="none" stroke="#000000" points="642,-146 642,-198 978,-198 978,-146 642,-146"/>
</g>
<g id="clust14" class="cluster">
<title>cluster_SampleModule_exports</title>
<polygon fill="none" stroke="#000000" points="288,-146 288,-198 634,-198 634,-146 288,-146"/>
</g>
<!-- AppComponent -->
<g id="node1" class="node">
<title>AppComponent</title>
<polygon fill="#ffffb3" stroke="#000000" points="129.9399,-122 24.0601,-122 24.0601,-86 129.9399,-86 129.9399,-122"/>
<text text-anchor="middle" x="77" y="-99.8" font-family="Times,serif" font-size="14.00" fill="#000000">AppComponent</text>
</g>
<!-- AppModule -->
<g id="node2" class="node">
<title>AppModule</title>
<polygon fill="#8dd3c7" stroke="#000000" points="181.6571,-190 178.6571,-194 157.6571,-194 154.6571,-190 98.3429,-190 98.3429,-154 181.6571,-154 181.6571,-190"/>
<text text-anchor="middle" x="140" y="-167.8" font-family="Times,serif" font-size="14.00" fill="#000000">AppModule</text>
</g>
<!-- AppComponent&#45;&gt;AppModule -->
<g id="edge1" class="edge">
<title>AppComponent&#45;&gt;AppModule</title>
<path fill="none" stroke="#000000" d="M113.9457,-122.2228C113.9457,-122.2228 113.9457,-143.7269 113.9457,-143.7269"/>
<polygon fill="#000000" stroke="#000000" points="110.4457,-143.7269 113.9457,-153.7269 117.4457,-143.727 110.4457,-143.7269"/>
</g>
<!-- AppComponent  -->
<g id="node4" class="node">
<title>AppComponent </title>
<polygon fill="#80b1d3" stroke="#000000" points="194.439,-258 85.561,-258 85.561,-222 194.439,-222 194.439,-258"/>
<text text-anchor="middle" x="140" y="-235.8" font-family="Times,serif" font-size="14.00" fill="#000000">AppComponent </text>
</g>
<!-- AppModule&#45;&gt;AppComponent  -->
<g id="edge3" class="edge">
<title>AppModule&#45;&gt;AppComponent </title>
<path fill="none" stroke="#000000" stroke-dasharray="1,5" d="M140,-190.2228C140,-190.2228 140,-211.7269 140,-211.7269"/>
<polygon fill="#000000" stroke="#000000" points="136.5001,-211.7269 140,-221.7269 143.5001,-211.727 136.5001,-211.7269"/>
</g>
<!-- SampleModule -->
<g id="node3" class="node">
<title>SampleModule</title>
<polygon fill="#8dd3c7" stroke="#000000" points="255.5438,-122 252.5438,-126 231.5438,-126 228.5438,-122 154.4562,-122 154.4562,-86 255.5438,-86 255.5438,-122"/>
<text text-anchor="middle" x="205" y="-99.8" font-family="Times,serif" font-size="14.00" fill="#000000">SampleModule</text>
</g>
<!-- SampleModule&#45;&gt;AppModule -->
<g id="edge2" class="edge">
<title>SampleModule&#45;&gt;AppModule</title>
<path fill="none" stroke="#000000" d="M168.0284,-122.2228C168.0284,-122.2228 168.0284,-143.7269 168.0284,-143.7269"/>
<polygon fill="#000000" stroke="#000000" points="164.5285,-143.7269 168.0284,-153.7269 171.5285,-143.727 164.5285,-143.7269"/>
</g>
<!-- EfficientUser  -->
<g id="node8" class="node">
<title>EfficientUser </title>
<polygon fill="#fb8072" stroke="#000000" points="626.4013,-190 531.5987,-190 531.5987,-154 626.4013,-154 626.4013,-190"/>
<text text-anchor="middle" x="579" y="-167.8" font-family="Times,serif" font-size="14.00" fill="#000000">EfficientUser </text>
</g>
<!-- SampleModule&#45;&gt;EfficientUser  -->
<g id="edge7" class="edge">
<title>SampleModule&#45;&gt;EfficientUser </title>
<path fill="none" stroke="#000000" stroke-dasharray="5,2" d="M255.8285,-110C358.0871,-110 579,-110 579,-110 579,-110 579,-143.7333 579,-143.7333"/>
<polygon fill="#000000" stroke="#000000" points="575.5001,-143.7333 579,-153.7333 582.5001,-143.7333 575.5001,-143.7333"/>
</g>
<!-- SampleDirective  -->
<g id="node9" class="node">
<title>SampleDirective </title>
<polygon fill="#fb8072" stroke="#000000" points="513.5766,-190 400.4234,-190 400.4234,-154 513.5766,-154 513.5766,-190"/>
<text text-anchor="middle" x="457" y="-167.8" font-family="Times,serif" font-size="14.00" fill="#000000">SampleDirective </text>
</g>
<!-- SampleModule&#45;&gt;SampleDirective  -->
<g id="edge8" class="edge">
<title>SampleModule&#45;&gt;SampleDirective </title>
<path fill="none" stroke="#000000" stroke-dasharray="5,2" d="M255.6928,-116C329.2809,-116 457,-116 457,-116 457,-116 457,-143.973 457,-143.973"/>
<polygon fill="#000000" stroke="#000000" points="453.5001,-143.973 457,-153.973 460.5001,-143.973 453.5001,-143.973"/>
</g>
<!-- SamplePipe  -->
<g id="node10" class="node">
<title>SamplePipe </title>
<polygon fill="#fb8072" stroke="#000000" points="382.3816,-190 295.6184,-190 295.6184,-154 382.3816,-154 382.3816,-190"/>
<text text-anchor="middle" x="339" y="-167.8" font-family="Times,serif" font-size="14.00" fill="#000000">SamplePipe </text>
</g>
<!-- SampleModule&#45;&gt;SamplePipe  -->
<g id="edge9" class="edge">
<title>SampleModule&#45;&gt;SamplePipe </title>
<path fill="none" stroke="#000000" stroke-dasharray="5,2" d="M225.1205,-122.2228C225.1205,-142.3652 225.1205,-172 225.1205,-172 225.1205,-172 285.6222,-172 285.6222,-172"/>
<polygon fill="#000000" stroke="#000000" points="285.6222,-175.5001 295.6222,-172 285.6221,-168.5001 285.6222,-175.5001"/>
</g>
<!-- EfficientUser -->
<g id="node5" class="node">
<title>EfficientUser</title>
<polygon fill="#ffffb3" stroke="#000000" points="969.9021,-190 878.0979,-190 878.0979,-154 969.9021,-154 969.9021,-190"/>
<text text-anchor="middle" x="924" y="-167.8" font-family="Times,serif" font-size="14.00" fill="#000000">EfficientUser</text>
</g>
<!-- EfficientUser&#45;&gt;SampleModule -->
<g id="edge4" class="edge">
<title>EfficientUser&#45;&gt;SampleModule</title>
<path fill="none" stroke="#000000" d="M924,-153.8468C924,-130.2434 924,-92 924,-92 924,-92 265.5587,-92 265.5587,-92"/>
<polygon fill="#000000" stroke="#000000" points="265.5587,-88.5001 255.5587,-92 265.5586,-95.5001 265.5587,-88.5001"/>
</g>
<!-- SampleDirective -->
<g id="node6" class="node">
<title>SampleDirective</title>
<polygon fill="#ffffb3" stroke="#000000" points="860.0758,-190 749.9242,-190 749.9242,-154 860.0758,-154 860.0758,-190"/>
<text text-anchor="middle" x="805" y="-167.8" font-family="Times,serif" font-size="14.00" fill="#000000">SampleDirective</text>
</g>
<!-- SampleDirective&#45;&gt;SampleModule -->
<g id="edge5" class="edge">
<title>SampleDirective&#45;&gt;SampleModule</title>
<path fill="none" stroke="#000000" d="M805,-153.7079C805,-131.7943 805,-98 805,-98 805,-98 265.6386,-98 265.6386,-98"/>
<polygon fill="#000000" stroke="#000000" points="265.6386,-94.5001 255.6386,-98 265.6385,-101.5001 265.6386,-94.5001"/>
</g>
<!-- SamplePipe -->
<g id="node7" class="node">
<title>SamplePipe</title>
<polygon fill="#ffffb3" stroke="#000000" points="732.3809,-190 649.6191,-190 649.6191,-154 732.3809,-154 732.3809,-190"/>
<text text-anchor="middle" x="691" y="-167.8" font-family="Times,serif" font-size="14.00" fill="#000000">SamplePipe</text>
</g>
<!-- SamplePipe&#45;&gt;SampleModule -->
<g id="edge6" class="edge">
<title>SamplePipe&#45;&gt;SampleModule</title>
<path fill="none" stroke="#000000" d="M691,-153.7772C691,-133.6348 691,-104 691,-104 691,-104 265.6352,-104 265.6352,-104"/>
<polygon fill="#000000" stroke="#000000" points="265.6352,-100.5001 255.6352,-104 265.6351,-107.5001 265.6352,-100.5001"/>
</g>
</g>
</svg>
