<?xml version="1.0" encoding="UTF-8" standalone="no"?>
<!DOCTYPE svg PUBLIC "-//W3C//DTD SVG 1.1//EN"
 "http://www.w3.org/Graphics/SVG/1.1/DTD/svg11.dtd">
<!-- Generated by graphviz version 2.40.1 (20161225.0304)
 -->
<!-- Title: dependencies Pages: 1 -->
<svg width="504pt" height="284pt"
 viewBox="0.00 0.00 504.00 284.00" xmlns="http://www.w3.org/2000/svg" xmlns:xlink="http://www.w3.org/1999/xlink">
<g id="graph0" class="graph" transform="scale(1 1) rotate(0) translate(4 280)">
<title>dependencies</title>
<polygon fill="#ffffff" stroke="transparent" points="-4,4 -4,-280 500,-280 500,4 -4,4"/>
<text text-anchor="start" x="227.0091" y="-42.4" font-family="sans-serif" font-weight="bold" font-size="14.00" fill="#000000">Legend</text>
<polygon fill="#ffffb3" stroke="transparent" points="14,-10 14,-30 34,-30 34,-10 14,-10"/>
<text text-anchor="start" x="37.629" y="-15.4" font-family="sans-serif" font-size="14.00" fill="#000000"> &#160;Declarations</text>
<polygon fill="#8dd3c7" stroke="transparent" points="127,-10 127,-30 147,-30 147,-10 127,-10"/>
<text text-anchor="start" x="150.7251" y="-15.4" font-family="sans-serif" font-size="14.00" fill="#000000"> &#160;Module</text>
<polygon fill="#80b1d3" stroke="transparent" points="213,-10 213,-30 233,-30 233,-10 213,-10"/>
<text text-anchor="start" x="236.7812" y="-15.4" font-family="sans-serif" font-size="14.00" fill="#000000"> &#160;Bootstrap</text>
<polygon fill="#fdb462" stroke="transparent" points="310,-10 310,-30 330,-30 330,-10 310,-10"/>
<text text-anchor="start" x="333.6732" y="-15.4" font-family="sans-serif" font-size="14.00" fill="#000000"> &#160;Providers</text>
<polygon fill="#fb8072" stroke="transparent" points="406,-10 406,-30 426,-30 426,-10 406,-10"/>
<text text-anchor="start" x="429.7258" y="-15.4" font-family="sans-serif" font-size="14.00" fill="#000000"> &#160;Exports</text>
<g id="clust1" class="cluster">
<title>cluster_SampleModule</title>
<polygon fill="none" stroke="#000000" stroke-dasharray="1,5" points="47,-70 47,-268 449,-268 449,-70 47,-70"/>
</g>
<g id="clust2" class="cluster">
<title>cluster_SampleModule_declarations</title>
<polygon fill="none" stroke="#000000" points="60,-78 60,-130 436,-130 436,-78 60,-78"/>
</g>
<g id="clust7" class="cluster">
<title>cluster_SampleModule_exports</title>
<polygon fill="none" stroke="#000000" points="55,-208 55,-260 441,-260 441,-208 55,-208"/>
</g>
<!-- MultiplyPipe -->
<g id="node1" class="node">
<title>MultiplyPipe</title>
<polygon fill="#ffffb3" stroke="#000000" points="427.8949,-122 338.1051,-122 338.1051,-86 427.8949,-86 427.8949,-122"/>
<text text-anchor="middle" x="383" y="-99.8" font-family="Times,serif" font-size="14.00" fill="#000000">MultiplyPipe</text>
</g>
<!-- SampleModule -->
<g id="node4" class="node">
<title>SampleModule</title>
<polygon fill="#8dd3c7" stroke="#000000" points="308.5438,-187 305.5438,-191 284.5438,-191 281.5438,-187 207.4562,-187 207.4562,-151 308.5438,-151 308.5438,-187"/>
<text text-anchor="middle" x="258" y="-164.8" font-family="Times,serif" font-size="14.00" fill="#000000">SampleModule</text>
</g>
<!-- MultiplyPipe&#45;&gt;SampleModule -->
<g id="edge1" class="edge">
<title>MultiplyPipe&#45;&gt;SampleModule</title>
<path fill="none" stroke="#000000" d="M398.3991,-122.0225C398.3991,-139.3734 398.3991,-163 398.3991,-163 398.3991,-163 318.6873,-163 318.6873,-163"/>
<polygon fill="#000000" stroke="#000000" points="318.6873,-159.5001 308.6873,-163 318.6873,-166.5001 318.6873,-159.5001"/>
</g>
<!-- SampleComponent -->
<g id="node2" class="node">
<title>SampleComponent</title>
<polygon fill="#ffffb3" stroke="#000000" points="319.8258,-122 196.1742,-122 196.1742,-86 319.8258,-86 319.8258,-122"/>
<text text-anchor="middle" x="258" y="-99.8" font-family="Times,serif" font-size="14.00" fill="#000000">SampleComponent</text>
</g>
<!-- SampleComponent&#45;&gt;SampleModule -->
<g id="edge2" class="edge">
<title>SampleComponent&#45;&gt;SampleModule</title>
<path fill="none" stroke="#000000" d="M258,-122.1061C258,-122.1061 258,-140.991 258,-140.991"/>
<polygon fill="#000000" stroke="#000000" points="254.5001,-140.9909 258,-150.991 261.5001,-140.991 254.5001,-140.9909"/>
</g>
<!-- SampleDirective -->
<g id="node3" class="node">
<title>SampleDirective</title>
<polygon fill="#ffffb3" stroke="#000000" points="178.0758,-122 67.9242,-122 67.9242,-86 178.0758,-86 178.0758,-122"/>
<text text-anchor="middle" x="123" y="-99.8" font-family="Times,serif" font-size="14.00" fill="#000000">SampleDirective</text>
</g>
<!-- SampleDirective&#45;&gt;SampleModule -->
<g id="edge3" class="edge">
<title>SampleDirective&#45;&gt;SampleModule</title>
<path fill="none" stroke="#000000" d="M140.5126,-122.0225C140.5126,-139.3734 140.5126,-163 140.5126,-163 140.5126,-163 197.1516,-163 197.1516,-163"/>
<polygon fill="#000000" stroke="#000000" points="197.1517,-166.5001 207.1516,-163 197.1516,-159.5001 197.1517,-166.5001"/>
</g>
<!-- MultiplyPipe  -->
<g id="node5" class="node">
<title>MultiplyPipe </title>
<polygon fill="#fb8072" stroke="#000000" points="432.8956,-252 339.1044,-252 339.1044,-216 432.8956,-216 432.8956,-252"/>
<text text-anchor="middle" x="386" y="-229.8" font-family="Times,serif" font-size="14.00" fill="#000000">MultiplyPipe </text>
</g>
<!-- SampleModule&#45;&gt;MultiplyPipe  -->
<g id="edge4" class="edge">
<title>SampleModule&#45;&gt;MultiplyPipe </title>
<path fill="none" stroke="#000000" stroke-dasharray="5,2" d="M308.5596,-175C337.7954,-175 368.8509,-175 368.8509,-175 368.8509,-175 368.8509,-205.9775 368.8509,-205.9775"/>
<polygon fill="#000000" stroke="#000000" points="365.351,-205.9774 368.8509,-215.9775 372.351,-205.9775 365.351,-205.9774"/>
</g>
<!-- SampleComponent  -->
<g id="node6" class="node">
<title>SampleComponent </title>
<polygon fill="#fb8072" stroke="#000000" points="321.3255,-252 194.6745,-252 194.6745,-216 321.3255,-216 321.3255,-252"/>
<text text-anchor="middle" x="258" y="-229.8" font-family="Times,serif" font-size="14.00" fill="#000000">SampleComponent </text>
</g>
<!-- SampleModule&#45;&gt;SampleComponent  -->
<g id="edge5" class="edge">
<title>SampleModule&#45;&gt;SampleComponent </title>
<path fill="none" stroke="#000000" stroke-dasharray="5,2" d="M258,-187.1061C258,-187.1061 258,-205.991 258,-205.991"/>
<polygon fill="#000000" stroke="#000000" points="254.5001,-205.9909 258,-215.991 261.5001,-205.991 254.5001,-205.9909"/>
</g>
<!-- SampleDirective  -->
<g id="node7" class="node">
<title>SampleDirective </title>
<polygon fill="#fb8072" stroke="#000000" points="176.5766,-252 63.4234,-252 63.4234,-216 176.5766,-216 176.5766,-252"/>
<text text-anchor="middle" x="120" y="-229.8" font-family="Times,serif" font-size="14.00" fill="#000000">SampleDirective </text>
</g>
<!-- SampleModule&#45;&gt;SampleDirective  -->
<g id="edge6" class="edge">
<title>SampleModule&#45;&gt;SampleDirective </title>
<path fill="none" stroke="#000000" stroke-dasharray="5,2" d="M207.2262,-175C162.4386,-175 104.2374,-175 104.2374,-175 104.2374,-175 104.2374,-205.9775 104.2374,-205.9775"/>
<polygon fill="#000000" stroke="#000000" points="100.7375,-205.9774 104.2374,-215.9775 107.7375,-205.9775 100.7375,-205.9774"/>
</g>
</g>
</svg>
