<?xml version="1.0" encoding="UTF-8" standalone="no"?>
<!DOCTYPE svg PUBLIC "-//W3C//DTD SVG 1.1//EN"
 "http://www.w3.org/Graphics/SVG/1.1/DTD/svg11.dtd">
<!-- Generated by graphviz version 2.40.1 (20161225.0304)
 -->
<!-- Title: dependencies Pages: 1 -->
<svg width="504pt" height="284pt"
 viewBox="0.00 0.00 504.00 284.00" xmlns="http://www.w3.org/2000/svg" xmlns:xlink="http://www.w3.org/1999/xlink">
<g id="graph0" class="graph" transform="scale(1 1) rotate(0) translate(4 280)">
<title>dependencies</title>
<polygon fill="#ffffff" stroke="transparent" points="-4,4 -4,-280 500,-280 500,4 -4,4"/>
<text text-anchor="start" x="227.0091" y="-42.4" font-family="sans-serif" font-weight="bold" font-size="14.00" fill="#000000">Legend</text>
<polygon fill="#ffffb3" stroke="transparent" points="14,-10 14,-30 34,-30 34,-10 14,-10"/>
<text text-anchor="start" x="37.629" y="-15.4" font-family="sans-serif" font-size="14.00" fill="#000000"> &#160;Declarations</text>
<polygon fill="#8dd3c7" stroke="transparent" points="127,-10 127,-30 147,-30 147,-10 127,-10"/>
<text text-anchor="start" x="150.7251" y="-15.4" font-family="sans-serif" font-size="14.00" fill="#000000"> &#160;Module</text>
<polygon fill="#80b1d3" stroke="transparent" points="213,-10 213,-30 233,-30 233,-10 213,-10"/>
<text text-anchor="start" x="236.7812" y="-15.4" font-family="sans-serif" font-size="14.00" fill="#000000"> &#160;Bootstrap</text>
<polygon fill="#fdb462" stroke="transparent" points="310,-10 310,-30 330,-30 330,-10 310,-10"/>
<text text-anchor="start" x="333.6732" y="-15.4" font-family="sans-serif" font-size="14.00" fill="#000000"> &#160;Providers</text>
<polygon fill="#fb8072" stroke="transparent" points="406,-10 406,-30 426,-30 426,-10 406,-10"/>
<text text-anchor="start" x="429.7258" y="-15.4" font-family="sans-serif" font-size="14.00" fill="#000000"> &#160;Exports</text>
<g id="clust1" class="cluster">
<title>cluster_SampleModule</title>
<polygon fill="none" stroke="#000000" stroke-dasharray="1,5" points="67,-70 67,-268 429,-268 429,-70 67,-70"/>
</g>
<g id="clust2" class="cluster">
<title>cluster_SampleModule_declarations</title>
<polygon fill="none" stroke="#000000" points="81,-78 81,-130 417,-130 417,-78 81,-78"/>
</g>
<g id="clust7" class="cluster">
<title>cluster_SampleModule_exports</title>
<polygon fill="none" stroke="#000000" points="75,-208 75,-260 421,-260 421,-208 75,-208"/>
</g>
<!-- EfficientUser -->
<g id="node1" class="node">
<title>EfficientUser</title>
<polygon fill="#ffffb3" stroke="#000000" points="408.9021,-122 317.0979,-122 317.0979,-86 408.9021,-86 408.9021,-122"/>
<text text-anchor="middle" x="363" y="-99.8" font-family="Times,serif" font-size="14.00" fill="#000000">EfficientUser</text>
</g>
<!-- SampleModule -->
<g id="node4" class="node">
<title>SampleModule</title>
<polygon fill="#8dd3c7" stroke="#000000" points="294.5438,-187 291.5438,-191 270.5438,-191 267.5438,-187 193.4562,-187 193.4562,-151 294.5438,-151 294.5438,-187"/>
<text text-anchor="middle" x="244" y="-164.8" font-family="Times,serif" font-size="14.00" fill="#000000">SampleModule</text>
</g>
<!-- EfficientUser&#45;&gt;SampleModule -->
<g id="edge1" class="edge">
<title>EfficientUser&#45;&gt;SampleModule</title>
<path fill="none" stroke="#000000" d="M378.6502,-122.0225C378.6502,-139.3734 378.6502,-163 378.6502,-163 378.6502,-163 304.9055,-163 304.9055,-163"/>
<polygon fill="#000000" stroke="#000000" points="304.9055,-159.5001 294.9055,-163 304.9054,-166.5001 304.9055,-159.5001"/>
</g>
<!-- SampleDirective -->
<g id="node2" class="node">
<title>SampleDirective</title>
<polygon fill="#ffffb3" stroke="#000000" points="299.0758,-122 188.9242,-122 188.9242,-86 299.0758,-86 299.0758,-122"/>
<text text-anchor="middle" x="244" y="-99.8" font-family="Times,serif" font-size="14.00" fill="#000000">SampleDirective</text>
</g>
<!-- SampleDirective&#45;&gt;SampleModule -->
<g id="edge2" class="edge">
<title>SampleDirective&#45;&gt;SampleModule</title>
<path fill="none" stroke="#000000" d="M244,-122.1061C244,-122.1061 244,-140.991 244,-140.991"/>
<polygon fill="#000000" stroke="#000000" points="240.5001,-140.9909 244,-150.991 247.5001,-140.991 240.5001,-140.9909"/>
</g>
<!-- SamplePipe -->
<g id="node3" class="node">
<title>SamplePipe</title>
<polygon fill="#ffffb3" stroke="#000000" points="171.3809,-122 88.6191,-122 88.6191,-86 171.3809,-86 171.3809,-122"/>
<text text-anchor="middle" x="130" y="-99.8" font-family="Times,serif" font-size="14.00" fill="#000000">SamplePipe</text>
</g>
<!-- SamplePipe&#45;&gt;SampleModule -->
<g id="edge3" class="edge">
<title>SamplePipe&#45;&gt;SampleModule</title>
<path fill="none" stroke="#000000" d="M142.3135,-122.0225C142.3135,-139.3734 142.3135,-163 142.3135,-163 142.3135,-163 183.4546,-163 183.4546,-163"/>
<polygon fill="#000000" stroke="#000000" points="183.4547,-166.5001 193.4546,-163 183.4546,-159.5001 183.4547,-166.5001"/>
</g>
<!-- EfficientUser  -->
<g id="node5" class="node">
<title>EfficientUser </title>
<polygon fill="#fb8072" stroke="#000000" points="413.4013,-252 318.5987,-252 318.5987,-216 413.4013,-216 413.4013,-252"/>
<text text-anchor="middle" x="366" y="-229.8" font-family="Times,serif" font-size="14.00" fill="#000000">EfficientUser </text>
</g>
<!-- SampleModule&#45;&gt;EfficientUser  -->
<g id="edge4" class="edge">
<title>SampleModule&#45;&gt;EfficientUser </title>
<path fill="none" stroke="#000000" stroke-dasharray="5,2" d="M294.7679,-175C321.4184,-175 348.5998,-175 348.5998,-175 348.5998,-175 348.5998,-205.9775 348.5998,-205.9775"/>
<polygon fill="#000000" stroke="#000000" points="345.0999,-205.9774 348.5998,-215.9775 352.0999,-205.9775 345.0999,-205.9774"/>
</g>
<!-- SampleDirective  -->
<g id="node6" class="node">
<title>SampleDirective </title>
<polygon fill="#fb8072" stroke="#000000" points="300.5766,-252 187.4234,-252 187.4234,-216 300.5766,-216 300.5766,-252"/>
<text text-anchor="middle" x="244" y="-229.8" font-family="Times,serif" font-size="14.00" fill="#000000">SampleDirective </text>
</g>
<!-- SampleModule&#45;&gt;SampleDirective  -->
<g id="edge5" class="edge">
<title>SampleModule&#45;&gt;SampleDirective </title>
<path fill="none" stroke="#000000" stroke-dasharray="5,2" d="M244,-187.1061C244,-187.1061 244,-205.991 244,-205.991"/>
<polygon fill="#000000" stroke="#000000" points="240.5001,-205.9909 244,-215.991 247.5001,-205.991 240.5001,-205.9909"/>
</g>
<!-- SamplePipe  -->
<g id="node7" class="node">
<title>SamplePipe </title>
<polygon fill="#fb8072" stroke="#000000" points="169.3816,-252 82.6184,-252 82.6184,-216 169.3816,-216 169.3816,-252"/>
<text text-anchor="middle" x="126" y="-229.8" font-family="Times,serif" font-size="14.00" fill="#000000">SamplePipe </text>
</g>
<!-- SampleModule&#45;&gt;SamplePipe  -->
<g id="edge6" class="edge">
<title>SampleModule&#45;&gt;SamplePipe </title>
<path fill="none" stroke="#000000" stroke-dasharray="5,2" d="M193.1883,-175C157.2526,-175 115.4365,-175 115.4365,-175 115.4365,-175 115.4365,-205.9775 115.4365,-205.9775"/>
<polygon fill="#000000" stroke="#000000" points="111.9366,-205.9774 115.4365,-215.9775 118.9366,-205.9775 111.9366,-205.9774"/>
</g>
</g>
</svg>
